<svg xmlns="http://www.w3.org/2000/svg" width="100" height="61.086" viewBox="-.008 16.786 100 61.086">
  <path d="M46.55 16.786h41.485L99.992 36.11v19.325H46.55"/>
  <path d="M67.79 58.143H43.812V26.35H15.188L7.416 44.92v13.35l29.217-.002v9.74h26.32c0-4.015 1.897-7.58 4.837-9.865zM22.642 45.215H11.1l6.38-15.278h19.157v15.278H22.642zm77.284 12.928h-16.84c2.94 2.285 4.836 5.852 4.836 9.866h2.104l9.926-2.648-.026-7.22zm-24.488.002c-5.448 0-9.864 4.416-9.864 9.863 0 5.446 4.416 9.863 9.864 9.863 5.446 0 9.862-4.414 9.862-9.86.002-5.447-4.414-9.863-9.862-9.863zm-.002 13.875c-2.215 0-4.01-1.797-4.01-4.012 0-2.217 1.795-4.012 4.01-4.012 2.217 0 4.013 1.795 4.013 4.012-.004 2.215-1.8 4.012-4.016 4.012zM32.613 23.96H22.66l1.198-5.03h7.56"/>
  <path d="M-.008 60.66h34.25v4.93H-.01zm0 7.35h4.932v9.862H-.008zm7.323 0h4.932v9.862H7.315zm7.323 0h4.93v9.862h-4.93zm7.35 0h4.93v9.862h-4.93zm7.322 0h4.93v9.862h-4.93z"/>
</svg>
